<svg version="1.1" viewBox="0.0 0.0 960.0 720.0" fill="none" stroke="none" stroke-linecap="square" stroke-miterlimit="10" xmlns:xlink="http://www.w3.org/1999/xlink" xmlns="http://www.w3.org/2000/svg"><clipPath id="p.0"><path d="m0 0l960.0 0l0 720.0l-960.0 0l0 -720.0z" clip-rule="nonzero"/></clipPath><g clip-path="url(#p.0)"><path fill="#000000" fill-opacity="0.0" d="m0 0l960.0 0l0 720.0l-960.0 0z" fill-rule="evenodd"/><path fill="#000000" fill-opacity="0.0" d="m480.1836 209.3727l279.68506 222.4882" fill-rule="evenodd"/><path stroke="#000000" stroke-width="12.0" stroke-linejoin="round" stroke-linecap="butt" d="m480.1836 209.3727l279.68506 222.4882" fill-rule="evenodd"/><path fill="#000000" fill-opacity="0.0" d="m200.13124 432.1496l280.0315 -222.77164" fill-rule="evenodd"/><path stroke="#000000" stroke-width="12.0" stroke-linejoin="round" stroke-linecap="butt" d="m200.13124 432.1496l280.0315 -222.77164" fill-rule="evenodd"/><path fill="#000000" fill-opacity="0.0" d="m126.59843 405.9344l706.8031 0l0 104.6929l-706.8031 0z" fill-rule="evenodd"/><path fill="#000000" d="m265.55777 493.09375q-0.71875 0 -2.84375 -1.203125q-2.109375 -1.203125 -4.03125 -3.84375q-0.328125 -0.390625 -1.96875 -2.390625q-1.640625 -2.0 -4.15625 -5.0q-2.515625 -3.0 -5.484375 -6.515625q-2.953125 -3.53125 -5.921875 -7.046875q-2.953125 -3.515625 -5.515625 -6.515625q-2.5625 -3.0 -4.28125 -5.03125q-1.71875 -2.046875 -2.109375 -2.53125q-0.5625 -0.71875 -0.96875 -1.0q-0.390625 -0.28125 -0.71875 -0.28125q-0.390625 0 -0.5625 0.609375q-0.15625 0.59375 -0.15625 1.078125q-0.078125 3.90625 -0.15625 9.03125q-0.078125 5.125 -0.171875 10.5625q-0.078125 5.4375 -0.078125 10.40625q0 2.15625 1.078125 4.0q1.09375 1.828125 4.046875 2.390625q1.359375 0.234375 2.0 0.5625q0.640625 0.3125 0.640625 0.875q0 0.484375 -0.640625 0.6875q-0.640625 0.203125 -1.671875 0.203125q-2.171875 0 -3.25 -0.125q-1.078125 -0.125 -1.921875 -0.203125q-0.828125 -0.078125 -2.359375 -0.078125q-1.4375 0 -2.234375 0.078125q-0.796875 0.078125 -1.84375 0.203125q-1.03125 0.125 -3.203125 0.125q-1.03125 0 -1.671875 -0.203125q-0.640625 -0.203125 -0.640625 -0.6875q0 -0.5625 0.640625 -0.875q0.640625 -0.328125 2.0 -0.640625q2.3125 -0.640625 3.359375 -2.359375q1.046875 -1.71875 1.28125 -4.203125q0.3125 -3.03125 0.625 -8.03125q0.328125 -5.0 0.5625 -11.203125q0.25 -6.203125 0.25 -12.765625q0 -4.234375 -2.203125 -6.078125q-2.203125 -1.84375 -5.71875 -2.953125q-0.3125 -0.171875 -1.40625 -0.6875q-1.078125 -0.515625 -1.078125 -1.234375q0 -0.71875 0.71875 -0.921875q0.734375 -0.203125 1.125 -0.203125q2.328125 0.078125 3.765625 0.125q1.4375 0.03125 2.546875 0.125q1.125 0.078125 2.484375 0.125q1.359375 0.03125 3.53125 0.03125q0.71875 0 1.109375 0.40625q0.40625 0.390625 0.8125 0.953125q0.3125 0.46875 2.109375 2.671875q1.796875 2.203125 4.46875 5.53125q2.6875 3.3125 5.890625 7.203125q3.203125 3.875 6.40625 7.75q3.203125 3.875 5.921875 7.203125q2.71875 3.3125 4.515625 5.484375q1.796875 2.15625 2.125 2.546875q0.3125 0.328125 0.90625 0.96875q0.609375 0.640625 1.09375 0.640625q0.71875 0 0.796875 -1.6875q0 -1.125 0.03125 -4.28125q0.046875 -3.15625 0.078125 -7.671875q0.046875 -4.53125 0.046875 -9.796875q0 -5.28125 0 -10.8125q-0.078125 -1.59375 -1.6875 -2.875q-1.59375 -1.28125 -2.953125 -1.515625q-1.359375 -0.25 -2.484375 -0.640625q-1.109375 -0.40625 -1.109375 -0.96875q0 -0.46875 1.109375 -0.671875q1.125 -0.203125 2.171875 -0.203125q0.796875 0 1.546875 0q0.765625 0 1.515625 0q0.765625 0 1.5 0q1.90625 0 3.03125 -0.03125q1.125 -0.046875 2.4375 -0.125q1.328125 -0.078125 3.71875 -0.078125q1.046875 0 1.6875 0.203125q0.640625 0.1875 0.640625 0.671875q0 1.125 -2.640625 1.59375q-2.96875 0.5625 -3.921875 1.453125q-0.953125 0.875 -1.125 2.875q0 0.390625 -0.046875 3.125q-0.03125 2.71875 -0.03125 6.875q0 4.15625 -0.046875 8.953125q-0.03125 4.796875 -0.03125 9.5625q0 4.765625 0 8.515625q0 1.921875 0.109375 3.484375q0.125 1.5625 0.203125 2.640625q0.09375 1.078125 0.09375 1.640625q0 1.28125 -0.53125 1.640625q-0.515625 0.359375 -1.15625 0.359375zm28.641205 -0.234375q-4.484375 0 -8.078125 -2.078125q-3.59375 -2.09375 -5.71875 -5.71875q-2.125 -3.640625 -2.125 -8.28125q0 -3.359375 1.3125 -6.5625q1.328125 -3.203125 3.71875 -5.84375q2.40625 -2.640625 5.609375 -4.203125q3.203125 -1.5625 6.875 -1.5625q4.640625 0 8.359375 2.25q3.734375 2.234375 5.921875 5.875q2.203125 3.640625 2.203125 7.953125q0 4.640625 -2.046875 8.8125q-2.03125 4.15625 -6.03125 6.765625q-4.0 2.59375 -10.0 2.59375zm1.6875 -2.40625q2.71875 0 4.875 -1.03125q2.15625 -1.046875 3.359375 -3.375q0.953125 -1.828125 1.265625 -4.46875q0.328125 -2.640625 0.328125 -4.96875q0 -3.828125 -1.40625 -7.390625q-1.390625 -3.5625 -3.90625 -5.84375q-2.515625 -2.28125 -5.96875 -2.28125q-2.15625 0 -3.875 0.6875q-1.71875 0.671875 -3.15625 2.515625q-1.609375 2.0 -2.09375 4.875q-0.46875 2.875 -0.46875 5.765625q0 3.921875 1.4375 7.484375q1.4375 3.546875 3.921875 5.796875q2.484375 2.234375 5.6875 2.234375zm44.631195 2.234375q-0.640625 0 -0.875 -0.546875q-0.328125 -0.890625 -0.8125 -2.359375q-0.46875 -1.484375 -0.875 -2.53125l-14.640625 -39.28125q-0.796875 -2.234375 -2.15625 -3.75q-1.359375 -1.53125 -3.4375 -2.078125q-1.28125 -0.40625 -1.96875 -0.796875q-0.671875 -0.40625 -0.671875 -0.96875q0 -0.484375 0.640625 -0.671875q0.640625 -0.203125 1.671875 -0.203125q1.28125 0 2.84375 0.078125q1.5625 0.078125 3.3125 0.125q1.765625 0.03125 3.609375 0.03125q1.609375 0 3.15625 -0.03125q1.5625 -0.046875 2.875 -0.078125q1.328125 -0.046875 2.125 -0.046875q1.046875 0 1.6875 0.203125q0.640625 0.1875 0.640625 0.671875q0 0.5625 -0.640625 1.0q-0.640625 0.4375 -2.0 0.59375q-2.234375 0.25 -3.71875 1.015625q-1.484375 0.75 -1.484375 2.109375q0 1.359375 0.359375 2.359375q0.359375 1.0 0.515625 1.5625l11.53125 30.40625q0.15625 0.3125 0.390625 0.390625q0.25 0.078125 0.484375 -0.46875l10.953125 -28.8125q1.609375 -4.234375 0.203125 -6.1875q-1.390625 -1.96875 -3.953125 -2.28125q-1.203125 -0.171875 -1.921875 -0.609375q-0.71875 -0.4375 -0.71875 -1.0q0 -0.484375 0.640625 -0.671875q0.640625 -0.203125 1.671875 -0.203125q1.046875 0 2.328125 0q1.28125 0 2.671875 0.046875q1.40625 0.03125 2.921875 0.03125q2.328125 0 4.96875 -0.109375q2.640625 -0.125 4.15625 -0.125q1.03125 0 1.671875 0.203125q0.640625 0.1875 0.640625 0.671875q0 0.5625 -0.640625 0.921875q-0.640625 0.359375 -2.0 0.671875q-2.953125 0.640625 -4.953125 2.734375q-2.0 2.078125 -2.875 4.234375l-15.046875 36.484375q-0.15625 0.390625 -0.59375 1.640625q-0.4375 1.234375 -0.921875 2.671875q-0.484375 1.4375 -0.96875 2.40625q-0.078125 0.234375 -0.3125 0.390625q-0.234375 0.15625 -0.484375 0.15625zm30.238068 -0.71875q-0.71875 0 -1.15625 -0.203125q-0.4375 -0.1875 -0.4375 -0.671875q0 -0.640625 0.59375 -0.875q0.609375 -0.25 1.25 -0.40625q1.671875 -0.390625 2.546875 -0.984375q0.890625 -0.609375 0.890625 -2.046875l0 -17.359375q0 -2.171875 -0.765625 -3.84375q-0.75 -1.6875 -2.84375 -2.0q-0.390625 -0.078125 -0.59375 -0.3125q-0.203125 -0.25 -0.203125 -0.734375q0 -0.875 0.71875 -0.953125q3.203125 -0.71875 5.28125 -1.953125q2.078125 -1.25 3.125 -2.046875q0.71875 -0.5625 1.125 -0.5625q0.46875 0 0.46875 0.40625q0 0.625 -0.203125 2.515625q-0.1875 1.875 -0.359375 4.15625q-0.15625 2.28125 -0.15625 4.125l0 18.5625q0 1.359375 0.921875 2.0q0.921875 0.640625 2.515625 1.03125q0.640625 0.15625 1.234375 0.40625q0.609375 0.234375 0.609375 0.875q0 0.875 -1.59375 0.875q-1.53125 0 -2.453125 -0.125q-0.90625 -0.109375 -1.75 -0.1875q-0.84375 -0.078125 -2.28125 -0.078125q-1.359375 0 -2.25 0.078125q-0.875 0.078125 -1.75 0.1875q-0.875 0.125 -2.484375 0.125zm6.484375 -41.515625q-1.6875 0 -2.84375 -1.15625q-1.15625 -1.15625 -1.15625 -2.84375q0 -1.765625 1.15625 -2.921875q1.15625 -1.15625 2.84375 -1.15625q1.765625 0 2.921875 1.15625q1.15625 1.15625 1.15625 2.921875q0 1.6875 -1.15625 2.84375q-1.15625 1.15625 -2.921875 1.15625zm38.162476 42.796875q-0.15625 0 -0.515625 -0.328125q-0.359375 -0.3125 -0.359375 -0.46875q0 -0.796875 0.1875 -2.28125q0.203125 -1.484375 0.203125 -2.515625l0 -0.484375q-1.203125 1.84375 -3.84375 3.765625q-2.640625 1.921875 -6.640625 1.921875q-4.546875 0 -7.875 -2.40625q-3.3125 -2.40625 -5.125 -6.15625q-1.796875 -3.765625 -1.796875 -7.765625q0 -4.640625 2.15625 -8.71875q2.171875 -4.078125 6.203125 -6.640625q4.046875 -2.5625 9.640625 -2.5625q1.609375 0 3.25 0.28125q1.640625 0.28125 2.515625 0.609375q0.71875 0.234375 1.03125 0.234375q0.5625 0 0.5625 -1.921875l0 -11.359375q0 -3.28125 -1.046875 -4.390625q-1.03125 -1.125 -2.953125 -1.453125q-0.71875 -0.15625 -0.71875 -1.03125q0 -0.71875 0.640625 -0.96875q3.515625 -0.875 5.515625 -1.671875q2.0 -0.796875 3.125 -1.28125q0.328125 -0.15625 0.59375 -0.1875q0.28125 -0.046875 0.453125 -0.046875q0.46875 0 0.546875 0.46875q0 0.484375 -0.125 1.640625q-0.109375 1.15625 -0.265625 3.40625q-0.15625 2.234375 -0.15625 5.84375l0 36.15625q0 2.71875 0.390625 3.96875q0.40625 1.234375 1.28125 1.234375q0.40625 0 1.40625 -0.078125q1.0 -0.09375 2.03125 -0.171875q1.4375 -0.078125 1.4375 0.71875q0 0.5625 -0.359375 1.0q-0.359375 0.4375 -0.75 0.4375q-2.25 0.328125 -4.40625 0.9375q-2.15625 0.59375 -4.953125 1.796875q-0.640625 0.3125 -0.84375 0.390625q-0.203125 0.078125 -0.4375 0.078125zm-8.078125 -4.5625q2.078125 0 4.078125 -1.078125q2.0 -1.078125 3.515625 -2.828125l0.078125 -14.40625q0 -2.15625 -1.234375 -4.234375q-1.234375 -2.09375 -3.4375 -3.40625q-2.203125 -1.3125 -5.171875 -1.3125q-1.828125 0 -4.15625 1.125q-2.3125 1.109375 -4.0 3.953125q-1.671875 2.828125 -1.671875 8.1875q0 4.5625 1.359375 7.328125q1.359375 2.765625 3.3125 4.203125q1.96875 1.4375 4.0 1.953125q2.046875 0.515625 3.328125 0.515625zm68.558075 4.25q-5.609375 0 -10.8125 -1.921875q-5.1875 -1.921875 -9.265625 -5.484375q-4.078125 -3.5625 -6.4375 -8.5625q-2.359375 -5.0 -2.359375 -11.078125q0 -5.84375 2.46875 -10.796875q2.484375 -4.953125 6.796875 -8.625q4.328125 -3.6875 9.890625 -5.734375q5.5625 -2.046875 11.71875 -2.046875q3.125 0 5.28125 0.25q2.15625 0.234375 4.1875 0.671875q2.046875 0.4375 4.765625 1.171875q1.203125 0.3125 1.71875 0.953125q0.53125 0.640625 0.609375 1.765625q0.15625 1.828125 0.390625 3.953125q0.25 2.125 0.328125 5.234375q0.078125 0.5625 -0.53125 0.921875q-0.59375 0.359375 -1.28125 0.203125q-0.671875 -0.15625 -0.90625 -1.03125q-0.8125 -3.046875 -1.859375 -5.25q-1.03125 -2.203125 -3.109375 -3.640625q-2.0 -1.359375 -4.84375 -2.03125q-2.828125 -0.6875 -6.109375 -0.6875q-4.640625 0 -8.609375 1.890625q-3.953125 1.875 -6.796875 5.125q-2.84375 3.234375 -4.4375 7.3125q-1.59375 4.078125 -1.59375 8.46875q0 4.890625 1.546875 9.609375q1.5625 4.71875 4.484375 8.515625q2.921875 3.796875 6.953125 6.078125q4.046875 2.28125 9.015625 2.28125q5.75 0 9.515625 -2.640625q3.765625 -2.640625 6.40625 -7.359375q0.546875 -1.03125 1.625 -1.03125q1.09375 0 1.09375 1.265625q0 0.640625 -0.328125 2.046875q-0.3125 1.40625 -0.84375 2.96875q-0.515625 1.546875 -1.0 2.75q-0.546875 1.125 -0.921875 1.453125q-0.359375 0.3125 -1.625 0.703125q-2.96875 1.203125 -7.09375 1.765625q-4.109375 0.5625 -8.03125 0.5625zm42.956207 -0.078125q-4.484375 0 -8.0781555 -2.078125q-3.59375 -2.09375 -5.71875 -5.71875q-2.125 -3.640625 -2.125 -8.28125q0 -3.359375 1.3125 -6.5625q1.328125 -3.203125 3.71875 -5.84375q2.40625 -2.640625 5.6094055 -4.203125q3.203125 -1.5625 6.875 -1.5625q4.640625 0 8.359375 2.25q3.734375 2.234375 5.921875 5.875q2.203125 3.640625 2.203125 7.953125q0 4.640625 -2.046875 8.8125q-2.03125 4.15625 -6.03125 6.765625q-4.0 2.59375 -10.0 2.59375zm1.6875 -2.40625q2.71875 0 4.875 -1.03125q2.15625 -1.046875 3.359375 -3.375q0.953125 -1.828125 1.265625 -4.46875q0.328125 -2.640625 0.328125 -4.96875q0 -3.828125 -1.40625 -7.390625q-1.390625 -3.5625 -3.90625 -5.84375q-2.515625 -2.28125 -5.96875 -2.28125q-2.15625 0 -3.875 0.6875q-1.71875 0.671875 -3.15625 2.515625q-1.6094055 2.0 -2.0937805 4.875q-0.46875 2.875 -0.46875 5.765625q0 3.921875 1.4375 7.484375q1.4375305 3.546875 3.9219055 5.796875q2.484375 2.234375 5.6875 2.234375zm22.70935 1.515625q-0.640625 0 -1.125 -0.15625q-0.46875 -0.15625 -0.46875 -0.71875q0 -0.5625 0.515625 -0.796875q0.515625 -0.25 1.328125 -0.484375q1.109375 -0.390625 2.265625 -0.90625q1.171875 -0.53125 1.171875 -2.125l0 -17.203125q0 -2.15625 -0.484375 -3.796875q-0.484375 -1.640625 -2.5625 -1.96875q-0.3125 -0.078125 -0.515625 -0.3125q-0.203125 -0.25 -0.203125 -0.71875q0 -0.8125 0.640625 -0.96875q2.15625 -0.5625 3.4375 -1.15625q1.28125 -0.609375 2.28125 -1.359375q1.0 -0.765625 2.4375 -1.640625q0.171875 -0.078125 0.328125 -0.203125q0.15625 -0.125 0.390625 -0.125q0.484375 0 0.484375 0.5625q0 0.5625 -0.203125 2.28125q-0.1875 1.71875 -0.1875 2.84375q0 0.796875 0.15625 0.953125l0.15625 0q1.84375 -1.75 4.84375 -3.546875q3.0 -1.8125 7.640625 -1.8125q2.875 0 4.796875 1.25q1.921875 1.234375 3.203125 4.28125l0.234375 0q2.5625 -2.328125 5.84375 -3.921875q3.28125 -1.609375 7.203125 -1.609375q2.640625 0 4.390625 1.609375q1.765625 1.59375 2.6875 4.15625q0.921875 2.5625 0.921875 5.359375l0 17.046875q0 1.59375 1.109375 2.125q1.125 0.515625 2.328125 0.90625q0.796875 0.234375 1.3125 0.484375q0.53125 0.234375 0.53125 0.796875q0 0.484375 -0.359375 0.671875q-0.359375 0.203125 -1.25 0.203125q-1.59375 0 -2.484375 -0.125q-0.875 -0.109375 -1.640625 -0.1875q-0.75 -0.078125 -2.1875 -0.078125q-1.359375 0 -2.25 0.078125q-0.875 0.078125 -1.84375 0.1875q-0.953125 0.125 -2.546875 0.125q-0.71875 0 -1.171875 -0.203125q-0.4375 -0.1875 -0.4375 -0.671875q0 -0.640625 0.515625 -0.875q0.53125 -0.25 1.328125 -0.40625q1.28125 -0.3125 2.359375 -0.875q1.078125 -0.5625 1.078125 -2.15625l0 -16.8125q0 -1.921875 -0.875 -3.640625q-0.875 -1.71875 -2.328125 -2.828125q-1.4375 -1.125 -3.1875 -1.125q-2.0 0 -3.71875 0.484375q-1.71875 0.46875 -3.25 1.671875q-2.234375 1.765625 -2.234375 5.765625l0 16.484375q0 1.59375 1.1875 2.15625q1.203125 0.5625 2.40625 0.875q0.796875 0.15625 1.3125 0.4375q0.53125 0.28125 0.53125 0.84375q0 0.484375 -0.40625 0.671875q-0.390625 0.203125 -1.1875 0.203125q-1.609375 0 -2.53125 -0.125q-0.921875 -0.109375 -1.765625 -0.1875q-0.828125 -0.078125 -2.265625 -0.078125q-1.359375 0 -2.25 0.078125q-0.875 0.078125 -1.84375 0.1875q-0.953125 0.125 -2.546875 0.125q-0.640625 0 -1.125 -0.203125q-0.484375 -0.1875 -0.484375 -0.671875q0 -0.640625 0.59375 -0.84375q0.609375 -0.203125 1.25 -0.4375q1.203125 -0.390625 2.359375 -0.90625q1.15625 -0.53125 1.15625 -2.125l0 -16.8125q0 -1.921875 -0.875 -3.640625q-0.875 -1.71875 -2.3125 -2.828125q-1.4375 -1.125 -3.203125 -1.125q-2.0 0 -3.71875 0.484375q-1.71875 0.46875 -3.25 1.671875q-2.15625 1.609375 -2.15625 5.765625l0 16.484375q0 1.59375 1.125 2.125q1.125 0.515625 2.3125 0.90625q0.640625 0.234375 1.234375 0.4375q0.609375 0.203125 0.609375 0.84375q0 0.484375 -0.4375 0.671875q-0.4375 0.203125 -1.15625 0.203125q-1.609375 0 -2.53125 -0.125q-0.90625 -0.109375 -1.71875 -0.1875q-0.796875 -0.078125 -2.234375 -0.078125q-1.359375 0 -2.203125 0.078125q-0.84375 0.078125 -1.765625 0.1875q-0.90625 0.125 -2.515625 0.125zm61.92743 22.5625q-0.40625 0 -1.046875 -0.125q-0.640625 -0.109375 -0.640625 -0.59375q0 -0.640625 0.59375 -0.921875q0.609375 -0.28125 1.25 -0.515625q1.203125 -0.40625 2.3125 -0.921875q1.125 -0.515625 1.125 -2.125l0 -40.546875q0 -0.640625 -0.359375 -1.921875q-0.359375 -1.28125 -1.15625 -2.484375q-0.796875 -1.203125 -2.15625 -1.4375q-0.328125 -0.078125 -0.484375 -0.390625q-0.15625 -0.328125 -0.15625 -0.65625q0 -0.390625 0.15625 -0.625q0.15625 -0.25 0.40625 -0.328125q3.03125 -0.71875 5.1875 -1.5625q2.171875 -0.84375 4.078125 -1.640625q0.09375 0 0.09375 -0.03125q0 -0.046875 0.078125 -0.046875q0.15625 0 0.3125 0.25q0.15625 0.234375 0.15625 0.46875q0 0.71875 -0.203125 2.28125q-0.1875 1.5625 -0.1875 2.515625q0 0.640625 0.078125 0.71875q0.796875 -0.796875 2.921875 -2.03125q2.125 -1.25 4.84375 -2.25q2.71875 -1.0 5.1875 -1.0q4.171875 0 7.078125 2.203125q2.921875 2.203125 4.484375 5.6875q1.5625 3.46875 1.5625 7.234375q0 3.59375 -1.359375 7.0q-1.359375 3.40625 -3.84375 6.125q-2.46875 2.71875 -5.75 4.359375q-3.28125 1.640625 -7.046875 1.640625q-1.125 0 -2.6875 -0.359375q-1.546875 -0.359375 -3.03125 -0.921875q-1.484375 -0.5625 -2.28125 -1.28125q-0.078125 0 -0.15625 0.921875q-0.078125 0.921875 -0.125 1.921875q-0.03125 1.0 -0.03125 1.234375l0 14.953125q0 1.046875 0.828125 1.640625q0.84375 0.609375 1.921875 0.890625q1.078125 0.28125 1.890625 0.515625q0.640625 0.234375 1.234375 0.515625q0.59375 0.28125 0.59375 0.921875q0 0.484375 -0.640625 0.59375q-0.640625 0.125 -1.109375 0.125q-2.328125 0 -3.890625 -0.203125q-1.546875 -0.1875 -3.640625 -0.1875q-1.359375 0 -2.203125 0.078125q-0.828125 0.078125 -1.71875 0.1875q-0.875 0.125 -2.46875 0.125zm18.71875 -24.15625q1.203125 0 2.921875 -0.71875q1.71875 -0.71875 3.4375 -2.3125q1.71875 -1.609375 2.875 -4.328125q1.15625 -2.71875 1.15625 -6.71875q0 -4.640625 -1.203125 -7.4375q-1.1875 -2.8125 -2.953125 -4.25q-1.75 -1.4375 -3.59375 -1.90625q-1.84375 -0.484375 -3.125 -0.484375q-1.921875 0 -3.96875 0.796875q-2.03125 0.796875 -3.4375 1.796875q-1.390625 1.0 -1.390625 1.5625q0 1.765625 -0.046875 3.5625q-0.03125 1.796875 -0.078125 3.484375q-0.03125 1.671875 -0.078125 3.0q-0.03125 1.3125 -0.03125 2.03125q0 3.203125 1.46875 5.921875q1.484375 2.71875 3.6875 4.359375q2.203125 1.640625 4.359375 1.640625zm27.357422 2.484375q-1.4375 0 -2.921875 -1.125q-1.484375 -1.125 -2.484375 -2.71875q-1.0 -1.59375 -1.0 -3.046875q0 -2.546875 1.359375 -3.984375q1.375 -1.453125 4.328125 -2.65625l8.15625 -3.359375q1.609375 -0.640625 1.875 -1.109375q0.28125 -0.484375 0.375 -2.078125l0.15625 -5.125q0.078125 -2.078125 -1.171875 -3.59375q-1.234375 -1.53125 -3.546875 -1.53125q-1.203125 0 -2.40625 0.40625q-1.203125 0.390625 -2.0 1.03125q-0.484375 0.328125 -0.640625 0.96875q-0.15625 0.640625 -0.15625 1.359375q0 0.3125 0.03125 0.71875q0.046875 0.40625 0.046875 0.71875q0 0.40625 -1.0 1.09375q-1.0 0.671875 -2.25 1.1875q-1.234375 0.515625 -2.03125 0.515625q-0.390625 0 -0.640625 -0.1875q-0.234375 -0.203125 -0.234375 -0.53125q0 -1.28125 0.828125 -2.75q0.84375 -1.484375 2.375 -2.765625q1.828125 -1.6875 3.984375 -2.96875q2.171875 -1.28125 4.25 -2.0q2.078125 -0.71875 3.671875 -0.71875q2.890625 0 4.765625 2.046875q1.875 2.03125 1.796875 5.078125l-0.390625 19.203125q-0.078125 1.671875 0.75 2.71875q0.84375 1.03125 2.125 1.03125q2.0 0 2.953125 -0.875q0.40625 -0.390625 0.640625 -0.390625q0.40625 0 0.640625 0.234375q0.25 0.234375 0.25 0.640625q0 0.875 -0.890625 1.75q-1.265625 1.28125 -2.75 2.046875q-1.484375 0.765625 -2.765625 0.765625q-3.671875 0 -5.84375 -4.171875l-0.234375 0q-2.640625 2.171875 -5.046875 3.171875q-2.390625 1.0 -4.953125 1.0zm3.765625 -3.84375q1.59375 0 2.703125 -0.515625q1.125 -0.53125 2.015625 -1.40625q0.390625 -0.40625 0.671875 -1.078125q0.28125 -0.6875 0.359375 -2.203125l0.171875 -3.921875q0.078125 -0.875 -0.09375 -1.265625q-0.15625 -0.40625 -0.640625 -0.40625q-0.15625 0 -0.5625 0.078125q-0.390625 0.078125 -1.03125 0.3125q-4.234375 1.53125 -5.875 3.171875q-1.640625 1.640625 -1.640625 3.0q0 2.078125 1.234375 3.15625q1.25 1.078125 2.6875 1.078125zm22.310608 2.953125q-0.71875 0 -1.15625 -0.203125q-0.4375 -0.1875 -0.4375 -0.671875q0 -0.640625 0.46875 -0.84375q0.484375 -0.203125 1.375 -0.4375q1.1875 -0.3125 2.3125 -0.875q1.125 -0.5625 1.125 -2.15625l0 -17.203125q0 -2.15625 -0.453125 -3.671875q-0.4375 -1.53125 -2.515625 -2.09375q-0.3125 -0.15625 -0.5625 -0.359375q-0.234375 -0.203125 -0.234375 -0.671875q0 -0.890625 0.71875 -0.96875q2.796875 -0.71875 4.5625 -1.75q1.765625 -1.046875 3.4375 -2.328125q0.25 -0.15625 0.4375 -0.28125q0.203125 -0.125 0.453125 -0.125q0.15625 0 0.265625 0.171875q0.125 0.15625 0.125 0.390625q0 0.5625 -0.203125 2.28125q-0.1875 1.71875 -0.1875 2.84375q0 0.3125 0.03125 0.59375q0.046875 0.28125 0.125 0.359375q2.796875 -2.640625 5.953125 -4.0q3.15625 -1.359375 6.921875 -1.359375q3.921875 0 6.484375 3.203125q2.5625 3.203125 2.5625 7.921875l0 17.046875q0 1.59375 1.109375 2.125q1.125 0.515625 2.328125 0.90625q0.640625 0.234375 1.234375 0.515625q0.609375 0.28125 0.609375 0.921875q0 0.484375 -0.5625 0.59375q-0.5625 0.125 -1.046875 0.125q-1.59375 0 -2.484375 -0.125q-0.875 -0.109375 -1.671875 -0.1875q-0.796875 -0.078125 -2.234375 -0.078125q-1.359375 0 -2.25 0.078125q-0.875 0.078125 -1.796875 0.1875q-0.921875 0.125 -2.515625 0.125q-0.40625 0 -1.015625 -0.125q-0.59375 -0.109375 -0.59375 -0.59375q0 -0.640625 0.59375 -0.921875q0.609375 -0.28125 1.25 -0.515625q1.203125 -0.390625 2.3125 -0.90625q1.125 -0.53125 1.125 -2.125l0 -16.8125q0 -3.515625 -1.96875 -5.46875q-1.953125 -1.96875 -5.234375 -2.046875q-2.875 0 -5.03125 0.921875q-2.15625 0.921875 -3.84375 2.28125q-0.3125 0.3125 -0.484375 0.84375q-0.15625 0.515625 -0.15625 1.0l0 19.28125q0 1.59375 1.125 2.15625q1.125 0.5625 2.3125 0.875q1.84375 0.484375 1.84375 1.28125q0 0.484375 -0.40625 0.671875q-0.390625 0.203125 -1.1875 0.203125q-1.609375 0 -2.53125 -0.125q-0.90625 -0.109375 -1.71875 -0.1875q-0.796875 -0.078125 -2.234375 -0.078125q-1.359375 0 -2.203125 0.078125q-0.84375 0.078125 -1.765625 0.1875q-0.90625 0.125 -2.515625 0.125zm40.649353 22.5625q-1.53125 0 -2.8125 -0.765625q-1.265625 -0.75 -1.265625 -2.515625q0 -1.4375 0.671875 -2.515625q0.6875 -1.078125 1.96875 -1.078125q0.875 0 1.703125 0.234375q0.84375 0.25 1.484375 0.25q0.484375 0 0.84375 -0.203125q0.359375 -0.203125 0.6875 -0.6875q0.875 -1.4375 2.03125 -3.59375q1.15625 -2.15625 2.390625 -4.890625q1.25 -2.71875 2.375 -5.75q0.234375 -0.71875 0.234375 -1.84375q0 -0.640625 -0.078125 -1.234375q-0.078125 -0.609375 -0.234375 -1.078125l-9.28125 -23.4375q-0.5625 -1.453125 -1.484375 -2.53125q-0.921875 -1.078125 -2.125 -1.390625q-0.640625 -0.25 -1.234375 -0.5625q-0.59375 -0.328125 -0.59375 -0.890625q0 -0.46875 0.59375 -0.59375q0.59375 -0.125 1.0 -0.125q1.59375 0 2.359375 0.09375q0.765625 0.078125 1.4375 0.203125q0.6875 0.109375 2.046875 0.109375q1.4375 0 2.15625 -0.109375q0.71875 -0.125 1.515625 -0.203125q0.796875 -0.09375 2.40625 -0.09375q0.484375 0 1.03125 0.203125q0.5625 0.203125 0.5625 0.6875q0 0.5625 -0.84375 1.078125q-0.828125 0.515625 -1.46875 0.671875q-0.796875 0.25 -1.203125 0.859375q-0.40625 0.59375 -0.40625 1.703125q0 0.484375 0.234375 1.171875q0.25 0.671875 0.40625 1.078125l6.484375 16.0q0.15625 0.46875 0.484375 0.46875q0.234375 0 0.390625 -0.46875l5.53125 -14.640625q0.234375 -0.5625 0.4375 -1.484375q0.203125 -0.921875 0.203125 -1.484375q0 -1.515625 -0.453125 -2.109375q-0.4375 -0.609375 -1.15625 -0.921875q-0.640625 -0.328125 -1.484375 -0.84375q-0.828125 -0.515625 -0.828125 -1.078125q0 -0.484375 0.59375 -0.6875q0.609375 -0.203125 1.0 -0.203125q1.125 0 2.28125 0.203125q1.15625 0.203125 3.40625 0.203125q1.515625 0 2.1875 -0.109375q0.6875 -0.125 1.15625 -0.203125q0.484375 -0.09375 1.375 -0.09375q0.390625 0 0.984375 0.125q0.609375 0.125 0.609375 0.59375q0 0.5625 -0.609375 0.890625q-0.59375 0.3125 -1.234375 0.5625q-1.1875 0.3125 -2.546875 1.875q-1.359375 1.5625 -2.171875 3.484375l-10.875 25.921875q-0.078125 0.234375 -0.84375 2.0625q-0.75 1.84375 -1.875 4.5625q-1.125 2.734375 -2.453125 5.84375q-1.3125 3.125 -2.515625 6.0q-0.71875 1.609375 -2.078125 2.4375q-1.359375 0.84375 -3.109375 0.84375z" fill-rule="nonzero"/></g></svg>